# xmcd CD database file
#
# Track frame offsets:
#	182
#	12082
#	24572
#	33417
#	44125
#	55017
#	66080
#	78127
#	91255
#	108452
#	119415
#	129092
#	141462
#
# Disc length: 2008 seconds
#
# Revision: 6
# Processed by: cddbd v1.5.2PL0 Copyright (c) Steve Scherf et al.
# Submitted via: CDex 1.70beta2
#
DISCID=a807d60d
DTITLE=Various Artist - Country and Western Vol. 3
DYEAR=1987
DGENRE=Country
TTITLE0=Dolly Parton - Letter to heaven
TTITLE1=Kenny Rogers - Ruben James
TTITLE2=Carl Perkins - This old house
TTITLE3=George Jones - Tender years
TTITLE4=Waylon Jennings - Dream baby
TTITLE5=Stonewall Jackson - Things to talk about
TTITLE6=Willie Nelson - I can't find the time
TTITLE7=Johnny Paycheck - Talk about me
TTITLE8=Kenny Rogers - Somethings burnin'
TTITLE9=Patsy Cline - Honky Tonk Merry go round
TTITLE10=Charlie Rich - Whirlwind
TTITLE11=Lyn Anderson - Stand by your man
TTITLE12=Johnny Paycheck - Mr Lovemaker
EXTD=\n YEAR: 1987
EXTT0=
EXTT1=
EXTT2=
EXTT3=
EXTT4=
EXTT5=
EXTT6=
EXTT7=
EXTT8=
EXTT9=
EXTT10=
EXTT11=
EXTT12=
PLAYORDER=
